<?xml version="1.0"?>
<svg xmlns="http://www.w3.org/2000/svg" viewBox="0 0 332.471 395.178" width="332.471" height="395.178">
  <defs>
    <clipPath id="a">
      <path style="fill:none" d="M0 0h332.471v395.178H0z" />
    </clipPath>
    <style>.c,.d,.e,.i{fill:none}.c,.d,.i{stroke:#000}.c,.e,.i{stroke-linecap:round}.c,.e{stroke-linejoin:round}.c{stroke-width:21.642px}.d,.i{stroke-miterlimit:10}.d{stroke-width:0}.e{stroke:#14254c;stroke-width:48.093px}.f{fill:#939598}.g{fill:#14254c}.h{fill:#f16149}.i{stroke-width:35.642px}.k{fill:#010101}.o{fill:#fff}</style>
  </defs>
  <g style="clip-path:url(#a)">
    <path class="c" d="m190.573 358.936 52.521-3.931" />
    <path d="M238.906 349.731a10.98 10.98 0 0 1 15.5.877c.174.2.343.4.5.6l2.55 3.3 22.968 29.737a6.78 6.78 0 0 1-9.972 9.122L255.3 379.876l-16.144-13.537a10.981 10.981 0 0 1-1.357-15.471 10.8 10.8 0 0 1 1.1-1.141z" />
    <path class="d" d="M238.906 349.731a10.98 10.98 0 0 1 15.5.877c.174.2.343.4.5.6l2.55 3.3 22.968 29.737a6.78 6.78 0 0 1-9.972 9.122L255.3 379.876l-16.144-13.537a10.981 10.981 0 0 1-1.357-15.471 10.8 10.8 0 0 1 1.1-1.141z" />
    <path class="e" d="M99.1 285.036c-122.3-6-98.98 100.8 98.389 73.5" />
    <path class="c" d="m297.511 300.669-13.452 54.353" />
    <path d="M272.746 356.137a11.015 11.015 0 0 0 11.136 11.663l4.185-.052 37.686-.475a6.8 6.8 0 0 0 .958-13.522l-20.049-3.5-20.7-4.255a11.015 11.015 0 0 0-13.215 10.146" />
    <path class="d" d="M272.746 356.137a11.015 11.015 0 0 0 11.136 11.663l4.185-.052 37.686-.475a6.8 6.8 0 0 0 .958-13.522l-20.049-3.5-20.7-4.255a11.015 11.015 0 0 0-13.215 10.146" />
    <path class="e" d="M179.146 283.589c39.286-52.438 87.916-68.566 108.038-54.019 21.653 15.653 9.94 66.562 9.136 69.907" />
    <path class="f" d="M222.641 43.437a7.339 7.339 0 0 1 5.354 8.856l-5.444 22.086a7.317 7.317 0 1 1-14.209-3.5l5.443-22.086a7.339 7.339 0 0 1 8.856-5.354" />
    <path class="f" d="m225.077 64.131 13.535-54.916a7.327 7.327 0 1 0-14.225-3.506l-13.535 54.916s8.207-2.69 14.225 3.506M192.69 68.987c1.086-4.406 11.885-5.532 24.12-2.517S238.084 75.5 237 79.908s-11.885 5.532-24.12 2.516-21.28-9.031-20.19-13.437" />
    <path class="f" d="M221.163 74.716s-36.839 172.495-60.54 208.064l-23.656 13.047s49.4-120.934 72.089-224.951z" />
    <path d="M154.021 297.242c24.144-62.738 51.205-131.977 65.736-206.879-1.537-3.578-14.063-6.629-17.993-4.429-13.038 73.128-40.425 137.8-63.827 200.885-3.951 11.58 11.043 18.968 16.084 10.423" />
    <path d="M222.7 211.99c-23.62 11.53-45.1 26.667-68.72 38.2 0 0-2.207 1.564-5.871 4.154-22.542 1.8-65.835 5.2-76.937 5.708A94.153 94.153 0 0 0 92 293.746c17.77 18.483 42.507 29.016 68.044 27.906a85.831 85.831 0 0 0 30.586-13.967c17.032-12.343 27.9-31.826 32.195-53.139a106.415 106.415 0 0 0-.128-42.556" />
    <path d="M208.072 143.545A53.6 53.6 0 1 0 102.2 155.471l9.571 84.73a42.88 42.88 0 0 0 85.76-.156l9.262-84.766a53.757 53.757 0 0 0 1.282-11.734" />
    <path class="g" d="M107.852 209.4c36.066 23.484 106.543-67.662 83.7-110.808L182 96.123c5.09 54.384-55.566 115.235-75.409 102.148z" />
    <path class="h" d="m110.838 238.825 85.76-.157.047 25.728-85.76.157z" />
    <path class="i" d="M123.593 113.759c-47.969 16.229-97.24 80.175-42.728 128.4M188.053 113.759c47.969 16.229 97.24 80.175 42.728 128.4" />
    <path transform="translate(113.296 230.625)" style="fill:#4672b8" d="M0 0h83.864v25.159H0z" />
    <path class="k" d="m217.316 240.053 6.408 7.49a11.914 11.914 0 0 1-1.306 16.8l-10.24 8.761a8.691 8.691 0 0 1-12.256-.953l-10.63-12.425a8.69 8.69 0 0 1 .954-12.254l10.2-8.729a11.965 11.965 0 0 1 16.869 1.312M94.33 240.053l-6.408 7.49a11.912 11.912 0 0 0 1.306 16.8l10.24 8.761a8.689 8.689 0 0 0 12.254-.953l10.631-12.425a8.689 8.689 0 0 0-.953-12.254l-10.2-8.729a11.964 11.964 0 0 0-16.868 1.312" />
    <path transform="translate(81.455 230.287)" style="fill:#505e6d" d="M0 0h141.736v102.636H0z" />
    <path d="M82.061 331.722h141.736v9.188H82.061z" />
    <path class="g" d="m88.741 104.651 40-14.833c4.838 20.866 3.01 78.586-23.123 100.739zM221.949 104.651l-41.576-14.833c-4.838 20.866-3.01 78.586 23.123 100.739z" />
    <path d="M193.738 99.424c0 17.812-16.537 32.252-36.936 32.252s-36.936-14.44-36.936-32.252S136.4 67.172 156.8 67.172s36.936 14.44 36.936 32.252" />
    <path class="g" d="M158.863 50.6h-4.132a29.4 29.4 0 0 0-29.319 31.333l2.084 31.622a29.4 29.4 0 0 0 58.675-.034l2.048-31.621a29.4 29.4 0 0 0-29.356-31.3" />
    <path d="m137.44 99.256 38.771-.022a8.042 8.042 0 0 0-.009-16.083l-38.771.023a8.041 8.041 0 1 0 .009 16.082" style="fill:#e9ad6a" />
    <path d="M151.917 99.248h6.981l-.008-13.42z" style="fill:#e26841" />
    <path class="o" d="M137.018 93.441h3.957a2.241 2.241 0 1 0 0-4.481h-3.955a2.242 2.242 0 0 0 0 4.483M171.411 93.421h3.956a2.241 2.241 0 1 0 0-4.481h-3.955a2.241 2.241 0 1 0 0 4.483" />
    <path d="M141.35 92.382a2.271 2.271 0 1 1-2.272-2.269 2.27 2.27 0 0 1 2.272 2.269M175.742 92.362a2.271 2.271 0 1 1-2.272-2.269 2.27 2.27 0 0 1 2.272 2.269" />
    <path d="M191.491 71.267C183.1 53.745 172.9 43.309 160.878 36.654s-24.125-1.624-40.138 13.938a2.942 2.942 0 0 0-.49 3.5c1.445 2.67 5.218.364 2.763 8.644 0 0-8.88 46.51-8.821 48.361.135 19.673 13.222 31.884 37.957 31.884h9.33c24.844 0 37.959-11.287 37.959-31.092 0 0-3.113-30.535-7.947-40.626m-34.724 68.976c-19.332 0-32.039-27.775-34.885-41.506-2.266-10.933 23.265-33.326 34.932-33.326s35.074 22.061 35.074 33.326-15.789 41.506-35.121 41.506" />
    <path class="g" d="M182.948 281.605a30.625 30.625 0 1 1-30.625-30.625 30.625 30.625 0 0 1 30.625 30.625" />
    <path class="h" d="M179.658 281.605a27.336 27.336 0 1 1-27.335-27.335 27.335 27.335 0 0 1 27.335 27.335" />
    <path d="M147.411 269.917a2.052 2.052 0 0 0 .568-.081l1.213 1.213a5.585 5.585 0 0 0-2.424 4.6h11.1v-.021h.006a5.545 5.545 0 0 0-2.424-4.587l1.207-1.208a2.06 2.06 0 1 0-1.25-1.008l-1.486 1.486a5.554 5.554 0 0 0-3.2 0l-1.494-1.494a2.062 2.062 0 1 0-1.822 1.1M167.6 286.439v-2.379h-4.99a14.545 14.545 0 0 0-.348-2.451l4.1-4.1-1.682-1.683-3.257 3.257a13.518 13.518 0 0 0-1.149-2.08h-15.891a13.529 13.529 0 0 0-1.157 2.1l-3.255-3.255-1.682 1.683 4.1 4.1a14.43 14.43 0 0 0-.349 2.451h-4.99v2.379h5.042a14.833 14.833 0 0 0 .423 2.324l-4.222 4.222 1.682 1.682 3.449-3.448c1.789 3.708 5.1 6.2 8.9 6.2s7.122-2.5 8.91-6.216l3.445 3.445 1.682-1.682-4.222-4.222a14.834 14.834 0 0 0 .424-2.324z" />
    <path class="g" d="m130.263 301.149 41.604-41.604 2.515 2.514-41.605 41.604z" />
  </g>
</svg>